<?xml version="1.0" encoding="utf-8"?>
<!-- Generator: Adobe Illustrator 21.0.0, SVG Export Plug-In . SVG Version: 6.00 Build 0)  -->
<svg version="1.1" id="Layer_1" xmlns="http://www.w3.org/2000/svg" xmlns:xlink="http://www.w3.org/1999/xlink" x="0px" y="0px"
	 viewBox="0 0 288 288" style="enable-background:new 0 0 288 288;" xml:space="preserve">
<style type="text/css">
	.st0{fill:#FFFFFF;}
	.st1{fill:#FFFFFF;stroke:#FFFFFF;stroke-width:1.07;stroke-linecap:round;stroke-linejoin:round;stroke-miterlimit:10;}
	.st2{clip-path:url(#SVGID_2_);fill:#FFFFFF;}
	.st3{clip-path:url(#SVGID_4_);fill:none;stroke:#000000;stroke-width:1.07;stroke-linejoin:round;stroke-miterlimit:10;}
	.st4{clip-path:url(#SVGID_6_);fill:none;stroke:#000000;stroke-width:1.07;stroke-linejoin:round;stroke-miterlimit:10;}
	
		.st5{clip-path:url(#SVGID_8_);fill:#F5F5F5;stroke:#000000;stroke-width:0.71;stroke-linecap:round;stroke-linejoin:round;stroke-miterlimit:10;}
	
		.st6{clip-path:url(#SVGID_10_);fill:#F5F5F5;stroke:#000000;stroke-width:0.71;stroke-linecap:round;stroke-linejoin:round;stroke-miterlimit:10;}
	
		.st7{clip-path:url(#SVGID_12_);fill:#F5F5F5;stroke:#000000;stroke-width:0.71;stroke-linecap:round;stroke-linejoin:round;stroke-miterlimit:10;}
	
		.st8{clip-path:url(#SVGID_14_);fill:#F5F5F5;stroke:#000000;stroke-width:0.71;stroke-linecap:round;stroke-linejoin:round;stroke-miterlimit:10;}
	
		.st9{clip-path:url(#SVGID_16_);fill:#F5F5F5;stroke:#000000;stroke-width:0.71;stroke-linecap:round;stroke-linejoin:round;stroke-miterlimit:10;}
	
		.st10{clip-path:url(#SVGID_18_);fill:#F5F5F5;stroke:#000000;stroke-width:0.71;stroke-linecap:round;stroke-linejoin:round;stroke-miterlimit:10;}
	
		.st11{clip-path:url(#SVGID_20_);fill:#F5F5F5;stroke:#000000;stroke-width:0.71;stroke-linecap:round;stroke-linejoin:round;stroke-miterlimit:10;}
	
		.st12{clip-path:url(#SVGID_22_);fill:#F5F5F5;stroke:#000000;stroke-width:0.71;stroke-linecap:round;stroke-linejoin:round;stroke-miterlimit:10;}
	
		.st13{clip-path:url(#SVGID_24_);fill:#F5F5F5;stroke:#000000;stroke-width:0.71;stroke-linecap:round;stroke-linejoin:round;stroke-miterlimit:10;}
	
		.st14{clip-path:url(#SVGID_26_);fill:#F5F5F5;stroke:#000000;stroke-width:0.71;stroke-linecap:round;stroke-linejoin:round;stroke-miterlimit:10;}
	
		.st15{clip-path:url(#SVGID_28_);fill:#F5F5F5;stroke:#000000;stroke-width:0.71;stroke-linecap:round;stroke-linejoin:round;stroke-miterlimit:10;}
	
		.st16{clip-path:url(#SVGID_30_);fill:#F5F5F5;stroke:#000000;stroke-width:0.71;stroke-linecap:round;stroke-linejoin:round;stroke-miterlimit:10;}
	
		.st17{clip-path:url(#SVGID_32_);fill:#F5F5F5;stroke:#000000;stroke-width:0.71;stroke-linecap:round;stroke-linejoin:round;stroke-miterlimit:10;}
	
		.st18{clip-path:url(#SVGID_34_);fill:#F5F5F5;stroke:#000000;stroke-width:0.71;stroke-linecap:round;stroke-linejoin:round;stroke-miterlimit:10;}
	
		.st19{clip-path:url(#SVGID_36_);fill:#F5F5F5;stroke:#000000;stroke-width:0.71;stroke-linecap:round;stroke-linejoin:round;stroke-miterlimit:10;}
	
		.st20{clip-path:url(#SVGID_38_);fill:#F5F5F5;stroke:#000000;stroke-width:0.71;stroke-linecap:round;stroke-linejoin:round;stroke-miterlimit:10;}
	
		.st21{clip-path:url(#SVGID_40_);fill:#F5F5F5;stroke:#000000;stroke-width:0.71;stroke-linecap:round;stroke-linejoin:round;stroke-miterlimit:10;}
	
		.st22{clip-path:url(#SVGID_42_);fill:#F5F5F5;stroke:#000000;stroke-width:0.71;stroke-linecap:round;stroke-linejoin:round;stroke-miterlimit:10;}
	
		.st23{clip-path:url(#SVGID_44_);fill:#F5F5F5;stroke:#000000;stroke-width:0.71;stroke-linecap:round;stroke-linejoin:round;stroke-miterlimit:10;}
	
		.st24{clip-path:url(#SVGID_46_);fill:#F5F5F5;stroke:#000000;stroke-width:0.71;stroke-linecap:round;stroke-linejoin:round;stroke-miterlimit:10;}
	
		.st25{clip-path:url(#SVGID_48_);fill:#F5F5F5;stroke:#000000;stroke-width:0.71;stroke-linecap:round;stroke-linejoin:round;stroke-miterlimit:10;}
	
		.st26{clip-path:url(#SVGID_50_);fill:#F5F5F5;stroke:#000000;stroke-width:0.71;stroke-linecap:round;stroke-linejoin:round;stroke-miterlimit:10;}
	
		.st27{clip-path:url(#SVGID_52_);fill:#F5F5F5;stroke:#000000;stroke-width:0.71;stroke-linecap:round;stroke-linejoin:round;stroke-miterlimit:10;}
	
		.st28{clip-path:url(#SVGID_54_);fill:#F5F5F5;stroke:#000000;stroke-width:0.71;stroke-linecap:round;stroke-linejoin:round;stroke-miterlimit:10;}
	
		.st29{clip-path:url(#SVGID_56_);fill:#F5F5F5;stroke:#000000;stroke-width:0.71;stroke-linecap:round;stroke-linejoin:round;stroke-miterlimit:10;}
	
		.st30{clip-path:url(#SVGID_58_);fill:#F5F5F5;stroke:#000000;stroke-width:0.71;stroke-linecap:round;stroke-linejoin:round;stroke-miterlimit:10;}
	
		.st31{clip-path:url(#SVGID_60_);fill:#F5F5F5;stroke:#000000;stroke-width:0.71;stroke-linecap:round;stroke-linejoin:round;stroke-miterlimit:10;}
	
		.st32{clip-path:url(#SVGID_62_);fill:#F5F5F5;stroke:#000000;stroke-width:0.71;stroke-linecap:round;stroke-linejoin:round;stroke-miterlimit:10;}
	
		.st33{clip-path:url(#SVGID_64_);fill:#F5F5F5;stroke:#000000;stroke-width:0.71;stroke-linecap:round;stroke-linejoin:round;stroke-miterlimit:10;}
	
		.st34{clip-path:url(#SVGID_66_);fill:#F5F5F5;stroke:#000000;stroke-width:0.71;stroke-linecap:round;stroke-linejoin:round;stroke-miterlimit:10;}
	
		.st35{clip-path:url(#SVGID_68_);fill:#F5F5F5;stroke:#000000;stroke-width:0.71;stroke-linecap:round;stroke-linejoin:round;stroke-miterlimit:10;}
	
		.st36{clip-path:url(#SVGID_70_);fill:#F5F5F5;stroke:#000000;stroke-width:0.71;stroke-linecap:round;stroke-linejoin:round;stroke-miterlimit:10;}
	
		.st37{clip-path:url(#SVGID_72_);fill:#F5F5F5;stroke:#000000;stroke-width:0.71;stroke-linecap:round;stroke-linejoin:round;stroke-miterlimit:10;}
	
		.st38{clip-path:url(#SVGID_74_);fill:#F5F5F5;stroke:#000000;stroke-width:0.71;stroke-linecap:round;stroke-linejoin:round;stroke-miterlimit:10;}
	
		.st39{clip-path:url(#SVGID_76_);fill:#F5F5F5;stroke:#000000;stroke-width:0.71;stroke-linecap:round;stroke-linejoin:round;stroke-miterlimit:10;}
	
		.st40{clip-path:url(#SVGID_78_);fill:#F5F5F5;stroke:#000000;stroke-width:0.71;stroke-linecap:round;stroke-linejoin:round;stroke-miterlimit:10;}
	
		.st41{clip-path:url(#SVGID_80_);fill:#F5F5F5;stroke:#000000;stroke-width:0.71;stroke-linecap:round;stroke-linejoin:round;stroke-miterlimit:10;}
	
		.st42{clip-path:url(#SVGID_82_);fill:#F5F5F5;stroke:#000000;stroke-width:0.71;stroke-linecap:round;stroke-linejoin:round;stroke-miterlimit:10;}
	
		.st43{clip-path:url(#SVGID_84_);fill:#F5F5F5;stroke:#000000;stroke-width:0.71;stroke-linecap:round;stroke-linejoin:round;stroke-miterlimit:10;}
	
		.st44{clip-path:url(#SVGID_86_);fill:#F5F5F5;stroke:#000000;stroke-width:0.71;stroke-linecap:round;stroke-linejoin:round;stroke-miterlimit:10;}
	
		.st45{clip-path:url(#SVGID_88_);fill:#F5F5F5;stroke:#000000;stroke-width:0.71;stroke-linecap:round;stroke-linejoin:round;stroke-miterlimit:10;}
	
		.st46{clip-path:url(#SVGID_90_);fill:#F5F5F5;stroke:#000000;stroke-width:0.71;stroke-linecap:round;stroke-linejoin:round;stroke-miterlimit:10;}
	
		.st47{clip-path:url(#SVGID_92_);fill:#F5F5F5;stroke:#000000;stroke-width:0.71;stroke-linecap:round;stroke-linejoin:round;stroke-miterlimit:10;}
	
		.st48{clip-path:url(#SVGID_94_);fill:#F5F5F5;stroke:#000000;stroke-width:0.71;stroke-linecap:round;stroke-linejoin:round;stroke-miterlimit:10;}
	
		.st49{clip-path:url(#SVGID_96_);fill:#F5F5F5;stroke:#000000;stroke-width:0.71;stroke-linecap:round;stroke-linejoin:round;stroke-miterlimit:10;}
	
		.st50{clip-path:url(#SVGID_98_);fill:#F5F5F5;stroke:#000000;stroke-width:0.71;stroke-linecap:round;stroke-linejoin:round;stroke-miterlimit:10;}
	
		.st51{clip-path:url(#SVGID_100_);fill:#F5F5F5;stroke:#000000;stroke-width:0.71;stroke-linecap:round;stroke-linejoin:round;stroke-miterlimit:10;}
	
		.st52{clip-path:url(#SVGID_102_);fill:#F5F5F5;stroke:#000000;stroke-width:0.71;stroke-linecap:round;stroke-linejoin:round;stroke-miterlimit:10;}
	
		.st53{clip-path:url(#SVGID_104_);fill:#F5F5F5;stroke:#000000;stroke-width:0.71;stroke-linecap:round;stroke-linejoin:round;stroke-miterlimit:10;}
	
		.st54{clip-path:url(#SVGID_106_);fill:#F5F5F5;stroke:#000000;stroke-width:0.71;stroke-linecap:round;stroke-linejoin:round;stroke-miterlimit:10;}
	.st55{clip-path:url(#SVGID_108_);}
	.st56{font-family:'ArialMT';}
	.st57{font-size:8.54px;}
	.st58{clip-path:url(#SVGID_110_);}
	.st59{clip-path:url(#SVGID_112_);}
	.st60{clip-path:url(#SVGID_114_);}
	.st61{clip-path:url(#SVGID_116_);}
	.st62{clip-path:url(#SVGID_118_);}
	.st63{clip-path:url(#SVGID_120_);}
	
		.st64{clip-path:url(#SVGID_122_);fill:none;stroke:#000000;stroke-width:1.07;stroke-linecap:round;stroke-linejoin:round;stroke-miterlimit:10;}
	.st65{clip-path:url(#SVGID_124_);}
	.st66{clip-path:url(#SVGID_126_);}
	
		.st67{clip-path:url(#SVGID_128_);stroke:#000000;stroke-width:0.71;stroke-linecap:round;stroke-linejoin:round;stroke-miterlimit:10;}
	
		.st68{clip-path:url(#SVGID_130_);stroke:#000000;stroke-width:0.71;stroke-linecap:round;stroke-linejoin:round;stroke-miterlimit:10;}
	
		.st69{clip-path:url(#SVGID_132_);stroke:#000000;stroke-width:0.71;stroke-linecap:round;stroke-linejoin:round;stroke-miterlimit:10;}
	
		.st70{clip-path:url(#SVGID_134_);stroke:#000000;stroke-width:0.71;stroke-linecap:round;stroke-linejoin:round;stroke-miterlimit:10;}
	
		.st71{clip-path:url(#SVGID_136_);stroke:#000000;stroke-width:0.71;stroke-linecap:round;stroke-linejoin:round;stroke-miterlimit:10;}
	
		.st72{clip-path:url(#SVGID_138_);stroke:#000000;stroke-width:0.71;stroke-linecap:round;stroke-linejoin:round;stroke-miterlimit:10;}
	
		.st73{clip-path:url(#SVGID_140_);stroke:#000000;stroke-width:0.71;stroke-linecap:round;stroke-linejoin:round;stroke-miterlimit:10;}
	
		.st74{clip-path:url(#SVGID_142_);stroke:#000000;stroke-width:0.71;stroke-linecap:round;stroke-linejoin:round;stroke-miterlimit:10;}
	
		.st75{clip-path:url(#SVGID_144_);stroke:#000000;stroke-width:0.71;stroke-linecap:round;stroke-linejoin:round;stroke-miterlimit:10;}
	.st76{clip-path:url(#SVGID_146_);fill:none;stroke:#000000;stroke-width:1.07;stroke-linejoin:round;stroke-miterlimit:10;}
	.st77{clip-path:url(#SVGID_148_);}
	.st78{fill:none;}
	.st79{fill:#4D4D4D;}
	.st80{font-size:8.8px;}
	.st81{clip-path:url(#SVGID_150_);}
	.st82{clip-path:url(#SVGID_152_);}
	.st83{clip-path:url(#SVGID_154_);}
	.st84{clip-path:url(#SVGID_156_);}
	.st85{clip-path:url(#SVGID_158_);}
	.st86{clip-path:url(#SVGID_160_);}
	.st87{clip-path:url(#SVGID_162_);fill:none;stroke:#333333;stroke-width:1.07;stroke-linejoin:round;stroke-miterlimit:10;}
	.st88{clip-path:url(#SVGID_164_);fill:none;stroke:#333333;stroke-width:1.07;stroke-linejoin:round;stroke-miterlimit:10;}
	.st89{clip-path:url(#SVGID_166_);fill:none;stroke:#333333;stroke-width:1.07;stroke-linejoin:round;stroke-miterlimit:10;}
	.st90{clip-path:url(#SVGID_168_);fill:none;stroke:#333333;stroke-width:1.07;stroke-linejoin:round;stroke-miterlimit:10;}
	.st91{clip-path:url(#SVGID_170_);fill:none;stroke:#333333;stroke-width:1.07;stroke-linejoin:round;stroke-miterlimit:10;}
	.st92{clip-path:url(#SVGID_172_);fill:none;stroke:#333333;stroke-width:1.07;stroke-linejoin:round;stroke-miterlimit:10;}
	.st93{clip-path:url(#SVGID_174_);fill:none;stroke:#333333;stroke-width:1.07;stroke-linejoin:round;stroke-miterlimit:10;}
	.st94{clip-path:url(#SVGID_176_);fill:none;stroke:#000000;stroke-width:1.07;stroke-linejoin:round;stroke-miterlimit:10;}
	.st95{clip-path:url(#SVGID_178_);fill:none;stroke:#333333;stroke-width:1.07;stroke-linejoin:round;stroke-miterlimit:10;}
	.st96{clip-path:url(#SVGID_180_);fill:none;stroke:#333333;stroke-width:1.07;stroke-linejoin:round;stroke-miterlimit:10;}
	.st97{clip-path:url(#SVGID_182_);fill:none;stroke:#333333;stroke-width:1.07;stroke-linejoin:round;stroke-miterlimit:10;}
	.st98{clip-path:url(#SVGID_184_);fill:none;stroke:#333333;stroke-width:1.07;stroke-linejoin:round;stroke-miterlimit:10;}
	.st99{clip-path:url(#SVGID_186_);fill:none;stroke:#333333;stroke-width:1.07;stroke-linejoin:round;stroke-miterlimit:10;}
	.st100{clip-path:url(#SVGID_188_);fill:none;stroke:#333333;stroke-width:1.07;stroke-linejoin:round;stroke-miterlimit:10;}
	.st101{clip-path:url(#SVGID_190_);}
	.st102{clip-path:url(#SVGID_192_);}
	.st103{clip-path:url(#SVGID_194_);}
	.st104{clip-path:url(#SVGID_196_);}
	.st105{clip-path:url(#SVGID_198_);}
	.st106{clip-path:url(#SVGID_200_);}
	.st107{clip-path:url(#SVGID_202_);}
	.st108{font-size:11px;}
	.st109{clip-path:url(#SVGID_204_);}
	.st110{clip-path:url(#SVGID_206_);fill:none;stroke:#FF0000;stroke-width:1.07;stroke-linejoin:round;stroke-miterlimit:10;}
	.st111{clip-path:url(#SVGID_208_);fill:none;stroke:#000000;stroke-width:1.07;stroke-linejoin:round;stroke-miterlimit:10;}
	
		.st112{clip-path:url(#SVGID_210_);fill:none;stroke:#000000;stroke-width:1.07;stroke-linecap:round;stroke-linejoin:round;stroke-miterlimit:10;}
	.st113{clip-path:url(#SVGID_212_);fill:none;stroke:#FF0000;stroke-width:1.07;stroke-linejoin:round;stroke-miterlimit:10;}
	.st114{clip-path:url(#SVGID_214_);fill:none;stroke:#000000;stroke-width:1.07;stroke-linejoin:round;stroke-miterlimit:10;}
	
		.st115{clip-path:url(#SVGID_216_);fill:none;stroke:#000000;stroke-width:1.07;stroke-linecap:round;stroke-linejoin:round;stroke-miterlimit:10;}
</style>
<rect y="0" class="st0" width="288" height="288"/>
<rect y="0" class="st1" width="288" height="288"/>
<g>
	<defs>
		<rect id="SVGID_1_" x="45" y="47.3" width="198" height="209"/>
	</defs>
	<clipPath id="SVGID_2_">
		<use xlink:href="#SVGID_1_"  style="overflow:visible;"/>
	</clipPath>
	<rect x="45" y="47.3" class="st2" width="198" height="209"/>
</g>
<g>
	<defs>
		<rect id="SVGID_3_" x="45" y="47.3" width="198" height="209"/>
	</defs>
	<clipPath id="SVGID_4_">
		<use xlink:href="#SVGID_3_"  style="overflow:visible;"/>
	</clipPath>
	<line class="st3" x1="45" y1="138.2" x2="242.9" y2="138.2"/>
</g>
<g>
	<defs>
		<rect id="SVGID_5_" x="45" y="47.3" width="198" height="209"/>
	</defs>
	<clipPath id="SVGID_6_">
		<use xlink:href="#SVGID_5_"  style="overflow:visible;"/>
	</clipPath>
	<line class="st4" x1="162" y1="256.3" x2="162" y2="47.3"/>
</g>
<g>
	<defs>
		<rect id="SVGID_7_" x="45" y="47.3" width="198" height="209"/>
	</defs>
	<clipPath id="SVGID_8_">
		<use xlink:href="#SVGID_7_"  style="overflow:visible;"/>
	</clipPath>
	<circle class="st5" cx="114.4" cy="119.4" r="2.5"/>
</g>
<g>
	<defs>
		<rect id="SVGID_9_" x="45" y="47.3" width="198" height="209"/>
	</defs>
	<clipPath id="SVGID_10_">
		<use xlink:href="#SVGID_9_"  style="overflow:visible;"/>
	</clipPath>
	<circle class="st6" cx="114.4" cy="119.4" r="2.5"/>
</g>
<g>
	<defs>
		<rect id="SVGID_11_" x="45" y="47.3" width="198" height="209"/>
	</defs>
	<clipPath id="SVGID_12_">
		<use xlink:href="#SVGID_11_"  style="overflow:visible;"/>
	</clipPath>
	<circle class="st7" cx="142.4" cy="177.4" r="2.5"/>
</g>
<g>
	<defs>
		<rect id="SVGID_13_" x="45" y="47.3" width="198" height="209"/>
	</defs>
	<clipPath id="SVGID_14_">
		<use xlink:href="#SVGID_13_"  style="overflow:visible;"/>
	</clipPath>
	<circle class="st8" cx="150.9" cy="111.6" r="2.5"/>
</g>
<g>
	<defs>
		<rect id="SVGID_15_" x="45" y="47.3" width="198" height="209"/>
	</defs>
	<clipPath id="SVGID_16_">
		<use xlink:href="#SVGID_15_"  style="overflow:visible;"/>
	</clipPath>
	<circle class="st9" cx="162" cy="131.1" r="2.5"/>
</g>
<g>
	<defs>
		<rect id="SVGID_17_" x="45" y="47.3" width="198" height="209"/>
	</defs>
	<clipPath id="SVGID_18_">
		<use xlink:href="#SVGID_17_"  style="overflow:visible;"/>
	</clipPath>
	<circle class="st10" cx="162" cy="132" r="2.5"/>
</g>
<g>
	<defs>
		<rect id="SVGID_19_" x="45" y="47.3" width="198" height="209"/>
	</defs>
	<clipPath id="SVGID_20_">
		<use xlink:href="#SVGID_19_"  style="overflow:visible;"/>
	</clipPath>
	<circle class="st11" cx="102.9" cy="145.6" r="2.5"/>
</g>
<g>
	<defs>
		<rect id="SVGID_21_" x="45" y="47.3" width="198" height="209"/>
	</defs>
	<clipPath id="SVGID_22_">
		<use xlink:href="#SVGID_21_"  style="overflow:visible;"/>
	</clipPath>
	<circle class="st12" cx="166.4" cy="126.5" r="2.5"/>
</g>
<g>
	<defs>
		<rect id="SVGID_23_" x="45" y="47.3" width="198" height="209"/>
	</defs>
	<clipPath id="SVGID_24_">
		<use xlink:href="#SVGID_23_"  style="overflow:visible;"/>
	</clipPath>
	<circle class="st13" cx="156.6" cy="146.2" r="2.5"/>
</g>
<g>
	<defs>
		<rect id="SVGID_25_" x="45" y="47.3" width="198" height="209"/>
	</defs>
	<clipPath id="SVGID_26_">
		<use xlink:href="#SVGID_25_"  style="overflow:visible;"/>
	</clipPath>
	<circle class="st14" cx="168.8" cy="108.1" r="2.5"/>
</g>
<g>
	<defs>
		<rect id="SVGID_27_" x="45" y="47.3" width="198" height="209"/>
	</defs>
	<clipPath id="SVGID_28_">
		<use xlink:href="#SVGID_27_"  style="overflow:visible;"/>
	</clipPath>
	<circle class="st15" cx="170.5" cy="160.4" r="2.5"/>
</g>
<g>
	<defs>
		<rect id="SVGID_29_" x="45" y="47.3" width="198" height="209"/>
	</defs>
	<clipPath id="SVGID_30_">
		<use xlink:href="#SVGID_29_"  style="overflow:visible;"/>
	</clipPath>
	<circle class="st16" cx="173.2" cy="188.1" r="2.5"/>
</g>
<g>
	<defs>
		<rect id="SVGID_31_" x="45" y="47.3" width="198" height="209"/>
	</defs>
	<clipPath id="SVGID_32_">
		<use xlink:href="#SVGID_31_"  style="overflow:visible;"/>
	</clipPath>
	<circle class="st17" cx="156.6" cy="115.6" r="2.5"/>
</g>
<g>
	<defs>
		<rect id="SVGID_33_" x="45" y="47.3" width="198" height="209"/>
	</defs>
	<clipPath id="SVGID_34_">
		<use xlink:href="#SVGID_33_"  style="overflow:visible;"/>
	</clipPath>
	<circle class="st18" cx="160.3" cy="105.6" r="2.5"/>
</g>
<g>
	<defs>
		<rect id="SVGID_35_" x="45" y="47.3" width="198" height="209"/>
	</defs>
	<clipPath id="SVGID_36_">
		<use xlink:href="#SVGID_35_"  style="overflow:visible;"/>
	</clipPath>
	<circle class="st19" cx="146.1" cy="138.1" r="2.5"/>
</g>
<g>
	<defs>
		<rect id="SVGID_37_" x="45" y="47.3" width="198" height="209"/>
	</defs>
	<clipPath id="SVGID_38_">
		<use xlink:href="#SVGID_37_"  style="overflow:visible;"/>
	</clipPath>
	<circle class="st20" cx="128.9" cy="246.8" r="2.5"/>
</g>
<g>
	<defs>
		<rect id="SVGID_39_" x="45" y="47.3" width="198" height="209"/>
	</defs>
	<clipPath id="SVGID_40_">
		<use xlink:href="#SVGID_39_"  style="overflow:visible;"/>
	</clipPath>
	<circle class="st21" cx="161.7" cy="157.4" r="2.5"/>
</g>
<g>
	<defs>
		<rect id="SVGID_41_" x="45" y="47.3" width="198" height="209"/>
	</defs>
	<clipPath id="SVGID_42_">
		<use xlink:href="#SVGID_41_"  style="overflow:visible;"/>
	</clipPath>
	<circle class="st22" cx="54" cy="201.4" r="2.5"/>
</g>
<g>
	<defs>
		<rect id="SVGID_43_" x="45" y="47.3" width="198" height="209"/>
	</defs>
	<clipPath id="SVGID_44_">
		<use xlink:href="#SVGID_43_"  style="overflow:visible;"/>
	</clipPath>
	<circle class="st23" cx="151.6" cy="183.1" r="2.5"/>
</g>
<g>
	<defs>
		<rect id="SVGID_45_" x="45" y="47.3" width="198" height="209"/>
	</defs>
	<clipPath id="SVGID_46_">
		<use xlink:href="#SVGID_45_"  style="overflow:visible;"/>
	</clipPath>
	<circle class="st24" cx="151.6" cy="222.4" r="2.5"/>
</g>
<g>
	<defs>
		<rect id="SVGID_47_" x="45" y="47.3" width="198" height="209"/>
	</defs>
	<clipPath id="SVGID_48_">
		<use xlink:href="#SVGID_47_"  style="overflow:visible;"/>
	</clipPath>
	<circle class="st25" cx="107.3" cy="129.3" r="2.5"/>
</g>
<g>
	<defs>
		<rect id="SVGID_49_" x="45" y="47.3" width="198" height="209"/>
	</defs>
	<clipPath id="SVGID_50_">
		<use xlink:href="#SVGID_49_"  style="overflow:visible;"/>
	</clipPath>
	<circle class="st26" cx="137.4" cy="122.1" r="2.5"/>
</g>
<g>
	<defs>
		<rect id="SVGID_51_" x="45" y="47.3" width="198" height="209"/>
	</defs>
	<clipPath id="SVGID_52_">
		<use xlink:href="#SVGID_51_"  style="overflow:visible;"/>
	</clipPath>
	<circle class="st27" cx="159.3" cy="150.6" r="2.5"/>
</g>
<g>
	<defs>
		<rect id="SVGID_53_" x="45" y="47.3" width="198" height="209"/>
	</defs>
	<clipPath id="SVGID_54_">
		<use xlink:href="#SVGID_53_"  style="overflow:visible;"/>
	</clipPath>
	<circle class="st28" cx="155.6" cy="200.3" r="2.5"/>
</g>
<g>
	<defs>
		<rect id="SVGID_55_" x="45" y="47.3" width="198" height="209"/>
	</defs>
	<clipPath id="SVGID_56_">
		<use xlink:href="#SVGID_55_"  style="overflow:visible;"/>
	</clipPath>
	<circle class="st29" cx="133" cy="159.8" r="2.5"/>
</g>
<g>
	<defs>
		<rect id="SVGID_57_" x="45" y="47.3" width="198" height="209"/>
	</defs>
	<clipPath id="SVGID_58_">
		<use xlink:href="#SVGID_57_"  style="overflow:visible;"/>
	</clipPath>
	<circle class="st30" cx="144.5" cy="81.6" r="2.5"/>
</g>
<g>
	<defs>
		<rect id="SVGID_59_" x="45" y="47.3" width="198" height="209"/>
	</defs>
	<clipPath id="SVGID_60_">
		<use xlink:href="#SVGID_59_"  style="overflow:visible;"/>
	</clipPath>
	<circle class="st31" cx="138" cy="109.9" r="2.5"/>
</g>
<g>
	<defs>
		<rect id="SVGID_61_" x="45" y="47.3" width="198" height="209"/>
	</defs>
	<clipPath id="SVGID_62_">
		<use xlink:href="#SVGID_61_"  style="overflow:visible;"/>
	</clipPath>
	<circle class="st32" cx="147.5" cy="212.2" r="2.5"/>
</g>
<g>
	<defs>
		<rect id="SVGID_63_" x="45" y="47.3" width="198" height="209"/>
	</defs>
	<clipPath id="SVGID_64_">
		<use xlink:href="#SVGID_63_"  style="overflow:visible;"/>
	</clipPath>
	<circle class="st33" cx="118.8" cy="177.7" r="2.5"/>
</g>
<g>
	<defs>
		<rect id="SVGID_65_" x="45" y="47.3" width="198" height="209"/>
	</defs>
	<clipPath id="SVGID_66_">
		<use xlink:href="#SVGID_65_"  style="overflow:visible;"/>
	</clipPath>
	<circle class="st34" cx="186.7" cy="152.2" r="2.5"/>
</g>
<g>
	<defs>
		<rect id="SVGID_67_" x="45" y="47.3" width="198" height="209"/>
	</defs>
	<clipPath id="SVGID_68_">
		<use xlink:href="#SVGID_67_"  style="overflow:visible;"/>
	</clipPath>
	<circle class="st35" cx="164.4" cy="166.8" r="2.5"/>
</g>
<g>
	<defs>
		<rect id="SVGID_69_" x="45" y="47.3" width="198" height="209"/>
	</defs>
	<clipPath id="SVGID_70_">
		<use xlink:href="#SVGID_69_"  style="overflow:visible;"/>
	</clipPath>
	<circle class="st36" cx="196.4" cy="159" r="2.5"/>
</g>
<g>
	<defs>
		<rect id="SVGID_71_" x="45" y="47.3" width="198" height="209"/>
	</defs>
	<clipPath id="SVGID_72_">
		<use xlink:href="#SVGID_71_"  style="overflow:visible;"/>
	</clipPath>
	<circle class="st37" cx="146.8" cy="56.8" r="2.5"/>
</g>
<g>
	<defs>
		<rect id="SVGID_73_" x="45" y="47.3" width="198" height="209"/>
	</defs>
	<clipPath id="SVGID_74_">
		<use xlink:href="#SVGID_73_"  style="overflow:visible;"/>
	</clipPath>
	<circle class="st38" cx="168.8" cy="154" r="2.5"/>
</g>
<g>
	<defs>
		<rect id="SVGID_75_" x="45" y="47.3" width="198" height="209"/>
	</defs>
	<clipPath id="SVGID_76_">
		<use xlink:href="#SVGID_75_"  style="overflow:visible;"/>
	</clipPath>
	<circle class="st39" cx="147.2" cy="89" r="2.5"/>
</g>
<g>
	<defs>
		<rect id="SVGID_77_" x="45" y="47.3" width="198" height="209"/>
	</defs>
	<clipPath id="SVGID_78_">
		<use xlink:href="#SVGID_77_"  style="overflow:visible;"/>
	</clipPath>
	<circle class="st40" cx="166.4" cy="160.6" r="2.5"/>
</g>
<g>
	<defs>
		<rect id="SVGID_79_" x="45" y="47.3" width="198" height="209"/>
	</defs>
	<clipPath id="SVGID_80_">
		<use xlink:href="#SVGID_79_"  style="overflow:visible;"/>
	</clipPath>
	<circle class="st41" cx="141.1" cy="154" r="2.5"/>
</g>
<g>
	<defs>
		<rect id="SVGID_81_" x="45" y="47.3" width="198" height="209"/>
	</defs>
	<clipPath id="SVGID_82_">
		<use xlink:href="#SVGID_81_"  style="overflow:visible;"/>
	</clipPath>
	<circle class="st42" cx="184.3" cy="235" r="2.5"/>
</g>
<g>
	<defs>
		<rect id="SVGID_83_" x="45" y="47.3" width="198" height="209"/>
	</defs>
	<clipPath id="SVGID_84_">
		<use xlink:href="#SVGID_83_"  style="overflow:visible;"/>
	</clipPath>
	<circle class="st43" cx="150.9" cy="182" r="2.5"/>
</g>
<g>
	<defs>
		<rect id="SVGID_85_" x="45" y="47.3" width="198" height="209"/>
	</defs>
	<clipPath id="SVGID_86_">
		<use xlink:href="#SVGID_85_"  style="overflow:visible;"/>
	</clipPath>
	<circle class="st44" cx="162" cy="117.9" r="2.5"/>
</g>
<g>
	<defs>
		<rect id="SVGID_87_" x="45" y="47.3" width="198" height="209"/>
	</defs>
	<clipPath id="SVGID_88_">
		<use xlink:href="#SVGID_87_"  style="overflow:visible;"/>
	</clipPath>
	<circle class="st45" cx="156.3" cy="163.8" r="2.5"/>
</g>
<g>
	<defs>
		<rect id="SVGID_89_" x="45" y="47.3" width="198" height="209"/>
	</defs>
	<clipPath id="SVGID_90_">
		<use xlink:href="#SVGID_89_"  style="overflow:visible;"/>
	</clipPath>
	<circle class="st46" cx="170.5" cy="177.3" r="2.5"/>
</g>
<g>
	<defs>
		<rect id="SVGID_91_" x="45" y="47.3" width="198" height="209"/>
	</defs>
	<clipPath id="SVGID_92_">
		<use xlink:href="#SVGID_91_"  style="overflow:visible;"/>
	</clipPath>
	<circle class="st47" cx="233.9" cy="220.4" r="2.5"/>
</g>
<g>
	<defs>
		<rect id="SVGID_93_" x="45" y="47.3" width="198" height="209"/>
	</defs>
	<clipPath id="SVGID_94_">
		<use xlink:href="#SVGID_93_"  style="overflow:visible;"/>
	</clipPath>
	<circle class="st48" cx="162" cy="173.7" r="2.5"/>
</g>
<g>
	<defs>
		<rect id="SVGID_95_" x="45" y="47.3" width="198" height="209"/>
	</defs>
	<clipPath id="SVGID_96_">
		<use xlink:href="#SVGID_95_"  style="overflow:visible;"/>
	</clipPath>
	<circle class="st49" cx="179.9" cy="172.9" r="2.5"/>
</g>
<g>
	<defs>
		<rect id="SVGID_97_" x="45" y="47.3" width="198" height="209"/>
	</defs>
	<clipPath id="SVGID_98_">
		<use xlink:href="#SVGID_97_"  style="overflow:visible;"/>
	</clipPath>
	<circle class="st50" cx="103.6" cy="151.4" r="2.5"/>
</g>
<g>
	<defs>
		<rect id="SVGID_99_" x="45" y="47.3" width="198" height="209"/>
	</defs>
	<clipPath id="SVGID_100_">
		<use xlink:href="#SVGID_99_"  style="overflow:visible;"/>
	</clipPath>
	<circle class="st51" cx="121.8" cy="152.6" r="2.5"/>
</g>
<g>
	<defs>
		<rect id="SVGID_101_" x="45" y="47.3" width="198" height="209"/>
	</defs>
	<clipPath id="SVGID_102_">
		<use xlink:href="#SVGID_101_"  style="overflow:visible;"/>
	</clipPath>
	<circle class="st52" cx="116.8" cy="125.9" r="2.5"/>
</g>
<g>
	<defs>
		<rect id="SVGID_103_" x="45" y="47.3" width="198" height="209"/>
	</defs>
	<clipPath id="SVGID_104_">
		<use xlink:href="#SVGID_103_"  style="overflow:visible;"/>
	</clipPath>
	<circle class="st53" cx="149.5" cy="156.4" r="2.5"/>
</g>
<g>
	<defs>
		<rect id="SVGID_105_" x="45" y="47.3" width="198" height="209"/>
	</defs>
	<clipPath id="SVGID_106_">
		<use xlink:href="#SVGID_105_"  style="overflow:visible;"/>
	</clipPath>
	<circle class="st54" cx="149.5" cy="156.4" r="2.5"/>
</g>
<g>
	<defs>
		<rect id="SVGID_107_" x="45" y="47.3" width="198" height="209"/>
	</defs>
	<clipPath id="SVGID_108_">
		<use xlink:href="#SVGID_107_"  style="overflow:visible;"/>
	</clipPath>
	<g class="st55">
		<text transform="matrix(1 0 0 1 82.7367 172.87)" class="st56 st57">Alaria.marginata</text>
	</g>
</g>
<g>
	<defs>
		<rect id="SVGID_109_" x="45" y="47.3" width="198" height="209"/>
	</defs>
	<clipPath id="SVGID_110_">
		<use xlink:href="#SVGID_109_"  style="overflow:visible;"/>
	</clipPath>
	<g class="st58">
		<text transform="matrix(1 0 0 1 169.0467 135.2933)" class="st56 st57">Barnacles</text>
	</g>
</g>
<g>
	<defs>
		<rect id="SVGID_111_" x="45" y="47.3" width="198" height="209"/>
	</defs>
	<clipPath id="SVGID_112_">
		<use xlink:href="#SVGID_111_"  style="overflow:visible;"/>
	</clipPath>
	<g class="st59">
		<text transform="matrix(1 0 0 1 94.4167 193.2267)" class="st56 st57">Fucus.distichus</text>
	</g>
</g>
<g>
	<defs>
		<rect id="SVGID_113_" x="45" y="47.3" width="198" height="209"/>
	</defs>
	<clipPath id="SVGID_114_">
		<use xlink:href="#SVGID_113_"  style="overflow:visible;"/>
	</clipPath>
	<g class="st60">
		<text transform="matrix(1 0 0 1 48.37 115.6233)" class="st56 st57">Hedophyllum.sessile</text>
	</g>
</g>
<g>
	<defs>
		<rect id="SVGID_115_" x="45" y="47.3" width="198" height="209"/>
	</defs>
	<clipPath id="SVGID_116_">
		<use xlink:href="#SVGID_115_"  style="overflow:visible;"/>
	</clipPath>
	<g class="st61">
		<text transform="matrix(1 0 0 1 172.9233 148.7802)" class="st56 st57">Hildenbrandia</text>
	</g>
</g>
<g>
	<defs>
		<rect id="SVGID_117_" x="45" y="47.3" width="198" height="209"/>
	</defs>
	<clipPath id="SVGID_118_">
		<use xlink:href="#SVGID_117_"  style="overflow:visible;"/>
	</clipPath>
	<g class="st62">
		<text transform="matrix(1 0 0 1 93.46 214.1533)" class="st56 st57">Mastocarpus</text>
	</g>
</g>
<g>
	<defs>
		<rect id="SVGID_119_" x="45" y="47.3" width="198" height="209"/>
	</defs>
	<clipPath id="SVGID_120_">
		<use xlink:href="#SVGID_119_"  style="overflow:visible;"/>
	</clipPath>
	<g class="st63">
		<text transform="matrix(1 0 0 1 118.29 68.65)" class="st56 st57">Mytilus.sp.</text>
	</g>
</g>
<g>
	<defs>
		<rect id="SVGID_121_" x="45" y="47.3" width="198" height="209"/>
	</defs>
	<clipPath id="SVGID_122_">
		<use xlink:href="#SVGID_121_"  style="overflow:visible;"/>
	</clipPath>
	<line class="st64" x1="173.3" y1="115.1" x2="162.7" y2="117.5"/>
	<line class="st64" x1="170.2" y1="148.4" x2="159.7" y2="150.8"/>
	<line class="st64" x1="137.2" y1="122.2" x2="127.8" y2="117.3"/>
</g>
<g>
	<defs>
		<rect id="SVGID_123_" x="45" y="47.3" width="198" height="209"/>
	</defs>
	<clipPath id="SVGID_124_">
		<use xlink:href="#SVGID_123_"  style="overflow:visible;"/>
	</clipPath>
	<g class="st65">
		<text transform="matrix(1 0 0 1 176.6 117.87)" class="st56 st57">Phyllospadix.sp.</text>
	</g>
</g>
<g>
	<defs>
		<rect id="SVGID_125_" x="45" y="47.3" width="198" height="209"/>
	</defs>
	<clipPath id="SVGID_126_">
		<use xlink:href="#SVGID_125_"  style="overflow:visible;"/>
	</clipPath>
	<g class="st66">
		<text transform="matrix(1 0 0 1 68.8434 153.7567)" class="st56 st57">Pyropia</text>
	</g>
</g>
<g>
	<defs>
		<rect id="SVGID_127_" x="45" y="47.3" width="198" height="209"/>
	</defs>
	<clipPath id="SVGID_128_">
		<use xlink:href="#SVGID_127_"  style="overflow:visible;"/>
	</clipPath>
	<circle class="st67" cx="142.4" cy="177.4" r="1.9"/>
</g>
<g>
	<defs>
		<rect id="SVGID_129_" x="45" y="47.3" width="198" height="209"/>
	</defs>
	<clipPath id="SVGID_130_">
		<use xlink:href="#SVGID_129_"  style="overflow:visible;"/>
	</clipPath>
	<circle class="st68" cx="162" cy="131.1" r="1.9"/>
</g>
<g>
	<defs>
		<rect id="SVGID_131_" x="45" y="47.3" width="198" height="209"/>
	</defs>
	<clipPath id="SVGID_132_">
		<use xlink:href="#SVGID_131_"  style="overflow:visible;"/>
	</clipPath>
	<circle class="st69" cx="151.6" cy="183.1" r="1.9"/>
</g>
<g>
	<defs>
		<rect id="SVGID_133_" x="45" y="47.3" width="198" height="209"/>
	</defs>
	<clipPath id="SVGID_134_">
		<use xlink:href="#SVGID_133_"  style="overflow:visible;"/>
	</clipPath>
	<circle class="st70" cx="137.4" cy="122.1" r="1.9"/>
</g>
<g>
	<defs>
		<rect id="SVGID_135_" x="45" y="47.3" width="198" height="209"/>
	</defs>
	<clipPath id="SVGID_136_">
		<use xlink:href="#SVGID_135_"  style="overflow:visible;"/>
	</clipPath>
	<circle class="st71" cx="159.3" cy="150.6" r="1.9"/>
</g>
<g>
	<defs>
		<rect id="SVGID_137_" x="45" y="47.3" width="198" height="209"/>
	</defs>
	<clipPath id="SVGID_138_">
		<use xlink:href="#SVGID_137_"  style="overflow:visible;"/>
	</clipPath>
	<circle class="st72" cx="147.5" cy="212.2" r="1.9"/>
</g>
<g>
	<defs>
		<rect id="SVGID_139_" x="45" y="47.3" width="198" height="209"/>
	</defs>
	<clipPath id="SVGID_140_">
		<use xlink:href="#SVGID_139_"  style="overflow:visible;"/>
	</clipPath>
	<circle class="st73" cx="146.8" cy="56.8" r="1.9"/>
</g>
<g>
	<defs>
		<rect id="SVGID_141_" x="45" y="47.3" width="198" height="209"/>
	</defs>
	<clipPath id="SVGID_142_">
		<use xlink:href="#SVGID_141_"  style="overflow:visible;"/>
	</clipPath>
	<circle class="st74" cx="162" cy="117.9" r="1.9"/>
</g>
<g>
	<defs>
		<rect id="SVGID_143_" x="45" y="47.3" width="198" height="209"/>
	</defs>
	<clipPath id="SVGID_144_">
		<use xlink:href="#SVGID_143_"  style="overflow:visible;"/>
	</clipPath>
	<circle class="st75" cx="103.6" cy="151.4" r="1.9"/>
</g>
<g>
	<defs>
		<rect id="SVGID_145_" y="0" width="288" height="288"/>
	</defs>
	<clipPath id="SVGID_146_">
		<use xlink:href="#SVGID_145_"  style="overflow:visible;"/>
	</clipPath>
	<line class="st76" x1="45" y1="256.3" x2="45" y2="47.3"/>
</g>
<g>
	<defs>
		<rect id="SVGID_147_" y="0" width="288" height="288"/>
	</defs>
	<clipPath id="SVGID_148_">
		<use xlink:href="#SVGID_147_"  style="overflow:visible;"/>
	</clipPath>
	<g class="st77">
		<rect x="25.9" y="53.6" class="st78" width="14.2" height="10.4"/>
		<text transform="matrix(1 0 0 1 25.8501 61.1098)" class="st79 st56 st80">10x</text>
	</g>
</g>
<g>
	<defs>
		<rect id="SVGID_149_" y="0" width="288" height="288"/>
	</defs>
	<clipPath id="SVGID_150_">
		<use xlink:href="#SVGID_149_"  style="overflow:visible;"/>
	</clipPath>
	<g class="st81">
		<text transform="matrix(1 0 0 1 30.75 85.26)" class="st79 st56 st80">5x</text>
	</g>
</g>
<g>
	<defs>
		<rect id="SVGID_151_" y="0" width="288" height="288"/>
	</defs>
	<clipPath id="SVGID_152_">
		<use xlink:href="#SVGID_151_"  style="overflow:visible;"/>
	</clipPath>
	<g class="st82">
		<text transform="matrix(1 0 0 1 30.75 117.19)" class="st79 st56 st80">2x</text>
	</g>
</g>
<g>
	<defs>
		<rect id="SVGID_153_" y="0" width="288" height="288"/>
	</defs>
	<clipPath id="SVGID_154_">
		<use xlink:href="#SVGID_153_"  style="overflow:visible;"/>
	</clipPath>
	<g class="st83">
		<text transform="matrix(1 0 0 1 35.15 141.34)" class="st79 st56 st80">0</text>
	</g>
</g>
<g>
	<defs>
		<rect id="SVGID_155_" y="0" width="288" height="288"/>
	</defs>
	<clipPath id="SVGID_156_">
		<use xlink:href="#SVGID_155_"  style="overflow:visible;"/>
	</clipPath>
	<g class="st84">
		<text transform="matrix(1 0 0 1 23.41 165.49)" class="st79 st56 st80">1/2x</text>
	</g>
</g>
<g>
	<defs>
		<rect id="SVGID_157_" y="0" width="288" height="288"/>
	</defs>
	<clipPath id="SVGID_158_">
		<use xlink:href="#SVGID_157_"  style="overflow:visible;"/>
	</clipPath>
	<g class="st85">
		<text transform="matrix(1 0 0 1 23.41 197.42)" class="st79 st56 st80">1/5x</text>
	</g>
</g>
<g>
	<defs>
		<rect id="SVGID_159_" y="0" width="288" height="288"/>
	</defs>
	<clipPath id="SVGID_160_">
		<use xlink:href="#SVGID_159_"  style="overflow:visible;"/>
	</clipPath>
	<g class="st86">
		<rect x="18.5" y="214" class="st78" width="21.5" height="10.4"/>
		<text transform="matrix(1 0 0 1 18.5098 221.5702)" class="st79 st56 st80">1/10x</text>
	</g>
</g>
<g>
	<defs>
		<rect id="SVGID_161_" y="0" width="288" height="288"/>
	</defs>
	<clipPath id="SVGID_162_">
		<use xlink:href="#SVGID_161_"  style="overflow:visible;"/>
	</clipPath>
	<line class="st87" x1="42.2" y1="58" x2="45" y2="58"/>
</g>
<g>
	<defs>
		<rect id="SVGID_163_" y="0" width="288" height="288"/>
	</defs>
	<clipPath id="SVGID_164_">
		<use xlink:href="#SVGID_163_"  style="overflow:visible;"/>
	</clipPath>
	<line class="st88" x1="42.2" y1="82.1" x2="45" y2="82.1"/>
</g>
<g>
	<defs>
		<rect id="SVGID_165_" y="0" width="288" height="288"/>
	</defs>
	<clipPath id="SVGID_166_">
		<use xlink:href="#SVGID_165_"  style="overflow:visible;"/>
	</clipPath>
	<line class="st89" x1="42.2" y1="114" x2="45" y2="114"/>
</g>
<g>
	<defs>
		<rect id="SVGID_167_" y="0" width="288" height="288"/>
	</defs>
	<clipPath id="SVGID_168_">
		<use xlink:href="#SVGID_167_"  style="overflow:visible;"/>
	</clipPath>
	<line class="st90" x1="42.2" y1="138.2" x2="45" y2="138.2"/>
</g>
<g>
	<defs>
		<rect id="SVGID_169_" y="0" width="288" height="288"/>
	</defs>
	<clipPath id="SVGID_170_">
		<use xlink:href="#SVGID_169_"  style="overflow:visible;"/>
	</clipPath>
	<line class="st91" x1="42.2" y1="162.3" x2="45" y2="162.3"/>
</g>
<g>
	<defs>
		<rect id="SVGID_171_" y="0" width="288" height="288"/>
	</defs>
	<clipPath id="SVGID_172_">
		<use xlink:href="#SVGID_171_"  style="overflow:visible;"/>
	</clipPath>
	<line class="st92" x1="42.2" y1="194.3" x2="45" y2="194.3"/>
</g>
<g>
	<defs>
		<rect id="SVGID_173_" y="0" width="288" height="288"/>
	</defs>
	<clipPath id="SVGID_174_">
		<use xlink:href="#SVGID_173_"  style="overflow:visible;"/>
	</clipPath>
	<line class="st93" x1="42.2" y1="218.4" x2="45" y2="218.4"/>
</g>
<g>
	<defs>
		<rect id="SVGID_175_" y="0" width="288" height="288"/>
	</defs>
	<clipPath id="SVGID_176_">
		<use xlink:href="#SVGID_175_"  style="overflow:visible;"/>
	</clipPath>
	<line class="st94" x1="45" y1="256.3" x2="242.9" y2="256.3"/>
</g>
<g>
	<defs>
		<rect id="SVGID_177_" y="0" width="288" height="288"/>
	</defs>
	<clipPath id="SVGID_178_">
		<use xlink:href="#SVGID_177_"  style="overflow:visible;"/>
	</clipPath>
	<line class="st95" x1="60.7" y1="259" x2="60.7" y2="256.3"/>
</g>
<g>
	<defs>
		<rect id="SVGID_179_" y="0" width="288" height="288"/>
	</defs>
	<clipPath id="SVGID_180_">
		<use xlink:href="#SVGID_179_"  style="overflow:visible;"/>
	</clipPath>
	<line class="st96" x1="94.5" y1="259" x2="94.5" y2="256.3"/>
</g>
<g>
	<defs>
		<rect id="SVGID_181_" y="0" width="288" height="288"/>
	</defs>
	<clipPath id="SVGID_182_">
		<use xlink:href="#SVGID_181_"  style="overflow:visible;"/>
	</clipPath>
	<line class="st97" x1="128.3" y1="259" x2="128.3" y2="256.3"/>
</g>
<g>
	<defs>
		<rect id="SVGID_183_" y="0" width="288" height="288"/>
	</defs>
	<clipPath id="SVGID_184_">
		<use xlink:href="#SVGID_183_"  style="overflow:visible;"/>
	</clipPath>
	<line class="st98" x1="162" y1="259" x2="162" y2="256.3"/>
</g>
<g>
	<defs>
		<rect id="SVGID_185_" y="0" width="288" height="288"/>
	</defs>
	<clipPath id="SVGID_186_">
		<use xlink:href="#SVGID_185_"  style="overflow:visible;"/>
	</clipPath>
	<line class="st99" x1="195.8" y1="259" x2="195.8" y2="256.3"/>
</g>
<g>
	<defs>
		<rect id="SVGID_187_" y="0" width="288" height="288"/>
	</defs>
	<clipPath id="SVGID_188_">
		<use xlink:href="#SVGID_187_"  style="overflow:visible;"/>
	</clipPath>
	<line class="st100" x1="229.5" y1="259" x2="229.5" y2="256.3"/>
</g>
<g>
	<defs>
		<rect id="SVGID_189_" y="0" width="288" height="288"/>
	</defs>
	<clipPath id="SVGID_190_">
		<use xlink:href="#SVGID_189_"  style="overflow:visible;"/>
	</clipPath>
	<g class="st101">
		<text transform="matrix(1 0 0 1 51.92 267.51)" class="st79 st56 st80">-300</text>
	</g>
</g>
<g>
	<defs>
		<rect id="SVGID_191_" y="0" width="288" height="288"/>
	</defs>
	<clipPath id="SVGID_192_">
		<use xlink:href="#SVGID_191_"  style="overflow:visible;"/>
	</clipPath>
	<g class="st102">
		<text transform="matrix(1 0 0 1 85.68 267.51)" class="st79 st56 st80">-200</text>
	</g>
</g>
<g>
	<defs>
		<rect id="SVGID_193_" y="0" width="288" height="288"/>
	</defs>
	<clipPath id="SVGID_194_">
		<use xlink:href="#SVGID_193_"  style="overflow:visible;"/>
	</clipPath>
	<g class="st103">
		<text transform="matrix(1 0 0 1 119.44 267.51)" class="st79 st56 st80">-100</text>
	</g>
</g>
<g>
	<defs>
		<rect id="SVGID_195_" y="0" width="288" height="288"/>
	</defs>
	<clipPath id="SVGID_196_">
		<use xlink:href="#SVGID_195_"  style="overflow:visible;"/>
	</clipPath>
	<g class="st104">
		<text transform="matrix(1 0 0 1 159.57 267.51)" class="st79 st56 st80">0</text>
	</g>
</g>
<g>
	<defs>
		<rect id="SVGID_197_" y="0" width="288" height="288"/>
	</defs>
	<clipPath id="SVGID_198_">
		<use xlink:href="#SVGID_197_"  style="overflow:visible;"/>
	</clipPath>
	<g class="st105">
		<text transform="matrix(1 0 0 1 188.44 267.51)" class="st79 st56 st80">100</text>
	</g>
</g>
<g>
	<defs>
		<rect id="SVGID_199_" y="0" width="288" height="288"/>
	</defs>
	<clipPath id="SVGID_200_">
		<use xlink:href="#SVGID_199_"  style="overflow:visible;"/>
	</clipPath>
	<g class="st106">
		<text transform="matrix(1 0 0 1 222.2 267.51)" class="st79 st56 st80">200</text>
	</g>
</g>
<g>
	<defs>
		<rect id="SVGID_201_" y="0" width="288" height="288"/>
	</defs>
	<clipPath id="SVGID_202_">
		<use xlink:href="#SVGID_201_"  style="overflow:visible;"/>
	</clipPath>
	<g class="st107">
		<rect x="97.2" y="270.7" class="st78" width="93.5" height="13"/>
		<text transform="matrix(1 0 0 1 97.1899 280.0995)" class="st56 st108">Elevation shift (cm)</text>
	</g>
</g>
<g>
	<defs>
		<rect id="SVGID_203_" y="0" width="288" height="288"/>
	</defs>
	<clipPath id="SVGID_204_">
		<use xlink:href="#SVGID_203_"  style="overflow:visible;"/>
	</clipPath>
	<g class="st109">
		<text transform="matrix(6.123234e-17 -1 1 6.123234e-17 13.35 191.2197)" class="st56 st108">Abundance shift</text>
	</g>
</g>
<g>
	<defs>
		<rect id="SVGID_205_" y="0" width="288" height="288"/>
	</defs>
	<clipPath id="SVGID_206_">
		<use xlink:href="#SVGID_205_"  style="overflow:visible;"/>
	</clipPath>
	<line class="st110" x1="149.9" y1="47.3" x2="149.9" y2="5.5"/>
</g>
<g>
	<defs>
		<rect id="SVGID_207_" y="0" width="288" height="288"/>
	</defs>
	<clipPath id="SVGID_208_">
		<use xlink:href="#SVGID_207_"  style="overflow:visible;"/>
	</clipPath>
	<line class="st111" x1="162" y1="47.3" x2="162" y2="5.5"/>
</g>
<g>
	<defs>
		<rect id="SVGID_209_" y="0" width="288" height="288"/>
	</defs>
	<clipPath id="SVGID_210_">
		<use xlink:href="#SVGID_209_"  style="overflow:visible;"/>
	</clipPath>
	<polyline class="st112" points="45,46.2 45.4,46.1 45.8,46 46.1,46 46.5,45.9 46.9,45.9 47.3,45.8 47.7,45.7 48.1,45.7 48.5,45.6 
		48.8,45.5 49.2,45.5 49.6,45.4 50,45.4 50.4,45.3 50.8,45.3 51.2,45.3 51.6,45.2 52,45.2 52.3,45.2 52.7,45.1 53.1,45.1 53.5,45.1 
		53.9,45.1 54.3,45.1 54.7,45.1 55,45.1 55.4,45.2 55.8,45.2 56.2,45.2 56.6,45.2 57,45.3 57.4,45.3 57.8,45.4 58.1,45.4 58.5,45.5 
		58.9,45.5 59.3,45.6 59.7,45.6 60.1,45.7 60.5,45.8 60.9,45.8 61.2,45.9 61.6,46 62,46 62.4,46.1 62.8,46.2 63.2,46.2 63.6,46.3 
		64,46.3 64.3,46.4 64.7,46.5 65.1,46.5 65.5,46.6 65.9,46.6 66.3,46.7 66.7,46.7 67.1,46.8 67.4,46.8 67.8,46.8 68.2,46.9 
		68.6,46.9 69,47 69.4,47 69.8,47 70.2,47 70.5,47.1 70.9,47.1 71.3,47.1 71.7,47.1 72.1,47.1 72.5,47.2 72.9,47.2 73.3,47.2 
		73.6,47.2 74,47.2 74.4,47.2 74.8,47.2 75.2,47.2 75.6,47.2 76,47.2 76.3,47.2 76.7,47.2 77.1,47.2 77.5,47.2 77.9,47.2 78.3,47.2 
		78.7,47.2 79.1,47.2 79.4,47.2 79.8,47.2 80.2,47.2 80.6,47.2 81,47.2 81.4,47.2 81.8,47.2 82.2,47.2 82.6,47.2 82.9,47.1 
		83.3,47.1 83.7,47.1 84.1,47.1 84.5,47 84.9,47 85.3,47 85.7,46.9 86,46.9 86.4,46.8 86.8,46.8 87.2,46.7 87.6,46.6 88,46.6 
		88.4,46.5 88.8,46.4 89.1,46.3 89.5,46.2 89.9,46.1 90.3,46 90.7,45.9 91.1,45.8 91.5,45.6 91.8,45.5 92.2,45.3 92.6,45.2 93,45 
		93.4,44.8 93.8,44.6 94.2,44.4 94.6,44.2 94.9,44 95.3,43.8 95.7,43.6 96.1,43.4 96.5,43.1 96.9,42.9 97.3,42.7 97.7,42.4 98,42.2 
		98.4,41.9 98.8,41.6 99.2,41.4 99.6,41.1 100,40.8 100.4,40.6 100.8,40.3 101.1,40.1 101.5,39.8 101.9,39.5 102.3,39.3 102.7,39 
		103.1,38.8 103.5,38.5 103.9,38.3 104.2,38 104.6,37.8 105,37.6 105.4,37.4 105.8,37.2 106.2,36.9 106.6,36.7 106.9,36.5 
		107.3,36.3 107.7,36.2 108.1,36 108.5,35.8 108.9,35.6 109.3,35.5 109.7,35.3 110.1,35.2 110.4,35 110.8,34.9 111.2,34.8 
		111.6,34.7 112,34.6 112.4,34.5 112.8,34.4 113.2,34.3 113.5,34.3 113.9,34.2 114.3,34.2 114.7,34.2 115.1,34.2 115.5,34.1 
		115.9,34.1 116.3,34.2 116.6,34.2 117,34.2 117.4,34.2 117.8,34.3 118.2,34.3 118.6,34.4 119,34.5 119.3,34.5 119.7,34.6 
		120.1,34.7 120.5,34.8 120.9,34.9 121.3,35 121.7,35.1 122.1,35.2 122.4,35.2 122.8,35.3 123.2,35.4 123.6,35.4 124,35.5 
		124.4,35.5 124.8,35.6 125.2,35.6 125.6,35.6 125.9,35.6 126.3,35.6 126.7,35.5 127.1,35.5 127.5,35.4 127.9,35.3 128.3,35.2 
		128.6,35.1 129,35 129.4,34.8 129.8,34.6 130.2,34.4 130.6,34.2 131,33.9 131.4,33.7 131.8,33.3 132.1,33 132.5,32.7 132.9,32.3 
		133.3,31.9 133.7,31.5 134.1,31.1 134.5,30.7 134.9,30.2 135.2,29.7 135.6,29.2 136,28.7 136.4,28.2 136.8,27.6 137.2,27 
		137.6,26.5 137.9,25.9 138.3,25.3 138.7,24.6 139.1,24 139.5,23.4 139.9,22.7 140.3,22.1 140.7,21.4 141.1,20.8 141.4,20.1 
		141.8,19.5 142.2,18.8 142.6,18.2 143,17.5 143.4,16.9 143.8,16.3 144.1,15.6 144.5,15 144.9,14.4 145.3,13.9 145.7,13.3 
		146.1,12.7 146.5,12.2 146.9,11.7 147.2,11.2 147.6,10.7 148,10.3 148.4,9.8 148.8,9.4 149.2,9 149.6,8.6 150,8.3 150.3,7.9 
		150.7,7.6 151.1,7.4 151.5,7.1 151.9,6.8 152.3,6.6 152.7,6.4 153.1,6.2 153.4,6.1 153.8,5.9 154.2,5.8 154.6,5.7 155,5.6 
		155.4,5.5 155.8,5.5 156.1,5.5 156.5,5.5 156.9,5.5 157.3,5.5 157.7,5.6 158.1,5.7 158.5,5.7 158.9,5.9 159.3,6 159.6,6.2 160,6.4 
		160.4,6.6 160.8,6.8 161.2,7.1 161.6,7.3 162,7.6 162.4,8 162.7,8.3 163.1,8.7 163.5,9.1 163.9,9.5 164.3,10 164.7,10.5 165.1,11 
		165.4,11.5 165.8,12.1 166.2,12.6 166.6,13.2 167,13.8 167.4,14.5 167.8,15.1 168.2,15.8 168.6,16.4 168.9,17.1 169.3,17.8 
		169.7,18.5 170.1,19.2 170.5,19.9 170.9,20.7 171.3,21.4 171.6,22.1 172,22.8 172.4,23.5 172.8,24.2 173.2,24.9 173.6,25.6 
		174,26.2 174.4,26.9 174.8,27.5 175.1,28.2 175.5,28.8 175.9,29.4 176.3,29.9 176.7,30.5 177.1,31 177.5,31.6 177.9,32.1 
		178.2,32.5 178.6,33 179,33.4 179.4,33.9 179.8,34.3 180.2,34.7 180.6,35 180.9,35.4 181.3,35.7 181.7,36 182.1,36.3 182.5,36.6 
		182.9,36.9 183.3,37.2 183.7,37.4 184.1,37.7 184.4,37.9 184.8,38.1 185.2,38.4 185.6,38.6 186,38.8 186.4,39 186.8,39.2 
		187.1,39.4 187.5,39.6 187.9,39.8 188.3,39.9 188.7,40.1 189.1,40.3 189.5,40.5 189.9,40.6 190.2,40.8 190.6,41 191,41.1 
		191.4,41.3 191.8,41.4 192.2,41.6 192.6,41.8 193,41.9 193.3,42.1 193.7,42.2 194.1,42.4 194.5,42.5 194.9,42.7 195.3,42.8 
		195.7,43 196.1,43.1 196.4,43.3 196.8,43.4 197.2,43.5 197.6,43.7 198,43.8 198.4,44 198.8,44.1 199.1,44.2 199.5,44.3 199.9,44.5 
		200.3,44.6 200.7,44.7 201.1,44.8 201.5,45 201.9,45.1 202.3,45.2 202.6,45.3 203,45.4 203.4,45.5 203.8,45.6 204.2,45.7 
		204.6,45.8 205,45.9 205.4,46 205.7,46.1 206.1,46.2 206.5,46.2 206.9,46.3 207.3,46.4 207.7,46.5 208.1,46.5 208.4,46.6 
		208.8,46.6 209.2,46.7 209.6,46.7 210,46.8 210.4,46.8 210.8,46.8 211.2,46.9 211.6,46.9 211.9,46.9 212.3,47 212.7,47 213.1,47 
		213.5,47 213.9,47 214.3,47 214.6,47 215,47 215.4,47 215.8,47 216.2,47 216.6,47 217,47 217.4,47 217.8,47 218.1,47 218.5,47 
		218.9,46.9 219.3,46.9 219.7,46.9 220.1,46.8 220.5,46.8 220.9,46.8 221.2,46.7 221.6,46.7 222,46.6 222.4,46.6 222.8,46.5 
		223.2,46.5 223.6,46.4 223.9,46.3 224.3,46.3 224.7,46.2 225.1,46.2 225.5,46.1 225.9,46 226.3,46 226.7,45.9 227.1,45.8 
		227.4,45.8 227.8,45.7 228.2,45.6 228.6,45.6 229,45.5 229.4,45.5 229.8,45.4 230.1,45.4 230.5,45.3 230.9,45.3 231.3,45.2 
		231.7,45.2 232.1,45.2 232.5,45.2 232.9,45.1 233.2,45.1 233.6,45.1 234,45.1 234.4,45.1 234.8,45.1 235.2,45.1 235.6,45.2 
		236,45.2 236.3,45.2 236.7,45.3 237.1,45.3 237.5,45.3 237.9,45.4 238.3,45.4 238.7,45.5 239.1,45.5 239.4,45.6 239.8,45.7 
		240.2,45.7 240.6,45.8 241,45.9 241.4,45.9 241.8,46 242.1,46 242.5,46.1 242.9,46.2 242.9,47.3 242.5,47.3 242.1,47.3 241.8,47.3 
		241.4,47.3 241,47.3 240.6,47.3 240.2,47.3 239.8,47.3 239.4,47.3 239.1,47.3 238.7,47.3 238.3,47.3 237.9,47.3 237.5,47.3 
		237.1,47.3 236.7,47.3 236.3,47.3 236,47.3 235.6,47.3 235.2,47.3 234.8,47.3 234.4,47.3 234,47.3 233.6,47.3 233.2,47.3 
		232.9,47.3 232.5,47.3 232.1,47.3 231.7,47.3 231.3,47.3 230.9,47.3 230.5,47.3 230.1,47.3 229.8,47.3 229.4,47.3 229,47.3 
		228.6,47.3 228.2,47.3 227.8,47.3 227.4,47.3 227.1,47.3 226.7,47.3 226.3,47.3 225.9,47.3 225.5,47.3 225.1,47.3 224.7,47.3 
		224.3,47.3 223.9,47.3 223.6,47.3 223.2,47.3 222.8,47.3 222.4,47.3 222,47.3 221.6,47.3 221.2,47.3 220.9,47.3 220.5,47.3 
		220.1,47.3 219.7,47.3 219.3,47.3 218.9,47.3 218.5,47.3 218.1,47.3 217.8,47.3 217.4,47.3 217,47.3 216.6,47.3 216.2,47.3 
		215.8,47.3 215.4,47.3 215,47.3 214.6,47.3 214.3,47.3 213.9,47.3 213.5,47.3 213.1,47.3 212.7,47.3 212.3,47.3 211.9,47.3 
		211.6,47.3 211.2,47.3 210.8,47.3 210.4,47.3 210,47.3 209.6,47.3 209.2,47.3 208.8,47.3 208.4,47.3 208.1,47.3 207.7,47.3 
		207.3,47.3 206.9,47.3 206.5,47.3 206.1,47.3 205.7,47.3 205.4,47.3 205,47.3 204.6,47.3 204.2,47.3 203.8,47.3 203.4,47.3 
		203,47.3 202.6,47.3 202.3,47.3 201.9,47.3 201.5,47.3 201.1,47.3 200.7,47.3 200.3,47.3 199.9,47.3 199.5,47.3 199.1,47.3 
		198.8,47.3 198.4,47.3 198,47.3 197.6,47.3 197.2,47.3 196.8,47.3 196.4,47.3 196.1,47.3 195.7,47.3 195.3,47.3 194.9,47.3 
		194.5,47.3 194.1,47.3 193.7,47.3 193.3,47.3 193,47.3 192.6,47.3 192.2,47.3 191.8,47.3 191.4,47.3 191,47.3 190.6,47.3 
		190.2,47.3 189.9,47.3 189.5,47.3 189.1,47.3 188.7,47.3 188.3,47.3 187.9,47.3 187.5,47.3 187.1,47.3 186.8,47.3 186.4,47.3 
		186,47.3 185.6,47.3 185.2,47.3 184.8,47.3 184.4,47.3 184.1,47.3 183.7,47.3 183.3,47.3 182.9,47.3 182.5,47.3 182.1,47.3 
		181.7,47.3 181.3,47.3 180.9,47.3 180.6,47.3 180.2,47.3 179.8,47.3 179.4,47.3 179,47.3 178.6,47.3 178.2,47.3 177.9,47.3 
		177.5,47.3 177.1,47.3 176.7,47.3 176.3,47.3 175.9,47.3 175.5,47.3 175.1,47.3 174.8,47.3 174.4,47.3 174,47.3 173.6,47.3 
		173.2,47.3 172.8,47.3 172.4,47.3 172,47.3 171.6,47.3 171.3,47.3 170.9,47.3 170.5,47.3 170.1,47.3 169.7,47.3 169.3,47.3 
		168.9,47.3 168.6,47.3 168.2,47.3 167.8,47.3 167.4,47.3 167,47.3 166.6,47.3 166.2,47.3 165.8,47.3 165.4,47.3 165.1,47.3 
		164.7,47.3 164.3,47.3 163.9,47.3 163.5,47.3 163.1,47.3 162.7,47.3 162.4,47.3 162,47.3 161.6,47.3 161.2,47.3 160.8,47.3 
		160.4,47.3 160,47.3 159.6,47.3 159.3,47.3 158.9,47.3 158.5,47.3 158.1,47.3 157.7,47.3 157.3,47.3 156.9,47.3 156.5,47.3 
		156.1,47.3 155.8,47.3 155.4,47.3 155,47.3 154.6,47.3 154.2,47.3 153.8,47.3 153.4,47.3 153.1,47.3 152.7,47.3 152.3,47.3 
		151.9,47.3 151.5,47.3 151.1,47.3 150.7,47.3 150.3,47.3 150,47.3 149.6,47.3 149.2,47.3 148.8,47.3 148.4,47.3 148,47.3 
		147.6,47.3 147.2,47.3 146.9,47.3 146.5,47.3 146.1,47.3 145.7,47.3 145.3,47.3 144.9,47.3 144.5,47.3 144.1,47.3 143.8,47.3 
		143.4,47.3 143,47.3 142.6,47.3 142.2,47.3 141.8,47.3 141.4,47.3 141.1,47.3 140.7,47.3 140.3,47.3 139.9,47.3 139.5,47.3 
		139.1,47.3 138.7,47.3 138.3,47.3 137.9,47.3 137.6,47.3 137.2,47.3 136.8,47.3 136.4,47.3 136,47.3 135.6,47.3 135.2,47.3 
		134.9,47.3 134.5,47.3 134.1,47.3 133.7,47.3 133.3,47.3 132.9,47.3 132.5,47.3 132.1,47.3 131.8,47.3 131.4,47.3 131,47.3 
		130.6,47.3 130.2,47.3 129.8,47.3 129.4,47.3 129,47.3 128.6,47.3 128.3,47.3 127.9,47.3 127.5,47.3 127.1,47.3 126.7,47.3 
		126.3,47.3 125.9,47.3 125.6,47.3 125.2,47.3 124.8,47.3 124.4,47.3 124,47.3 123.6,47.3 123.2,47.3 122.8,47.3 122.4,47.3 
		122.1,47.3 121.7,47.3 121.3,47.3 120.9,47.3 120.5,47.3 120.1,47.3 119.7,47.3 119.3,47.3 119,47.3 118.6,47.3 118.2,47.3 
		117.8,47.3 117.4,47.3 117,47.3 116.6,47.3 116.3,47.3 115.9,47.3 115.5,47.3 115.1,47.3 114.7,47.3 114.3,47.3 113.9,47.3 
		113.5,47.3 113.2,47.3 112.8,47.3 112.4,47.3 112,47.3 111.6,47.3 111.2,47.3 110.8,47.3 110.4,47.3 110.1,47.3 109.7,47.3 
		109.3,47.3 108.9,47.3 108.5,47.3 108.1,47.3 107.7,47.3 107.3,47.3 106.9,47.3 106.6,47.3 106.2,47.3 105.8,47.3 105.4,47.3 
		105,47.3 104.6,47.3 104.2,47.3 103.9,47.3 103.5,47.3 103.1,47.3 102.7,47.3 102.3,47.3 101.9,47.3 101.5,47.3 101.1,47.3 
		100.8,47.3 100.4,47.3 100,47.3 99.6,47.3 99.2,47.3 98.8,47.3 98.4,47.3 98,47.3 97.7,47.3 97.3,47.3 96.9,47.3 96.5,47.3 
		96.1,47.3 95.7,47.3 95.3,47.3 94.9,47.3 94.6,47.3 94.2,47.3 93.8,47.3 93.4,47.3 93,47.3 92.6,47.3 92.2,47.3 91.8,47.3 
		91.5,47.3 91.1,47.3 90.7,47.3 90.3,47.3 89.9,47.3 89.5,47.3 89.1,47.3 88.8,47.3 88.4,47.3 88,47.3 87.6,47.3 87.2,47.3 
		86.8,47.3 86.4,47.3 86,47.3 85.7,47.3 85.3,47.3 84.9,47.3 84.5,47.3 84.1,47.3 83.7,47.3 83.3,47.3 82.9,47.3 82.6,47.3 
		82.2,47.3 81.8,47.3 81.4,47.3 81,47.3 80.6,47.3 80.2,47.3 79.8,47.3 79.4,47.3 79.1,47.3 78.7,47.3 78.3,47.3 77.9,47.3 
		77.5,47.3 77.1,47.3 76.7,47.3 76.3,47.3 76,47.3 75.6,47.3 75.2,47.3 74.8,47.3 74.4,47.3 74,47.3 73.6,47.3 73.3,47.3 72.9,47.3 
		72.5,47.3 72.1,47.3 71.7,47.3 71.3,47.3 70.9,47.3 70.5,47.3 70.2,47.3 69.8,47.3 69.4,47.3 69,47.3 68.6,47.3 68.2,47.3 
		67.8,47.3 67.4,47.3 67.1,47.3 66.7,47.3 66.3,47.3 65.9,47.3 65.5,47.3 65.1,47.3 64.7,47.3 64.3,47.3 64,47.3 63.6,47.3 
		63.2,47.3 62.8,47.3 62.4,47.3 62,47.3 61.6,47.3 61.2,47.3 60.9,47.3 60.5,47.3 60.1,47.3 59.7,47.3 59.3,47.3 58.9,47.3 
		58.5,47.3 58.1,47.3 57.8,47.3 57.4,47.3 57,47.3 56.6,47.3 56.2,47.3 55.8,47.3 55.4,47.3 55,47.3 54.7,47.3 54.3,47.3 53.9,47.3 
		53.5,47.3 53.1,47.3 52.7,47.3 52.3,47.3 52,47.3 51.6,47.3 51.2,47.3 50.8,47.3 50.4,47.3 50,47.3 49.6,47.3 49.2,47.3 48.8,47.3 
		48.5,47.3 48.1,47.3 47.7,47.3 47.3,47.3 46.9,47.3 46.5,47.3 46.1,47.3 45.8,47.3 45.4,47.3 45,47.3 45,46.2 	"/>
</g>
<g>
	<defs>
		<rect id="SVGID_211_" y="0" width="288" height="288"/>
	</defs>
	<clipPath id="SVGID_212_">
		<use xlink:href="#SVGID_211_"  style="overflow:visible;"/>
	</clipPath>
	<line class="st113" x1="242.9" y1="153.1" x2="282.5" y2="153.1"/>
</g>
<g>
	<defs>
		<rect id="SVGID_213_" y="0" width="288" height="288"/>
	</defs>
	<clipPath id="SVGID_214_">
		<use xlink:href="#SVGID_213_"  style="overflow:visible;"/>
	</clipPath>
	<line class="st114" x1="242.9" y1="138.2" x2="282.5" y2="138.2"/>
</g>
<g>
	<defs>
		<rect id="SVGID_215_" y="0" width="288" height="288"/>
	</defs>
	<clipPath id="SVGID_216_">
		<use xlink:href="#SVGID_215_"  style="overflow:visible;"/>
	</clipPath>
	<polyline class="st115" points="245.6,256.3 245.7,255.9 245.7,255.5 245.8,255.1 245.9,254.6 246,254.2 246.1,253.8 246.1,253.4 
		246.2,253 246.3,252.6 246.4,252.2 246.4,251.8 246.5,251.4 246.6,251 246.7,250.6 246.8,250.1 246.9,249.7 246.9,249.3 247,248.9 
		247.1,248.5 247.2,248.1 247.3,247.7 247.4,247.3 247.4,246.9 247.5,246.5 247.6,246.1 247.7,245.6 247.8,245.2 247.9,244.8 
		248,244.4 248.1,244 248.1,243.6 248.2,243.2 248.3,242.8 248.4,242.4 248.5,242 248.6,241.6 248.6,241.1 248.7,240.7 248.8,240.3 
		248.9,239.9 249,239.5 249.1,239.1 249.1,238.7 249.2,238.3 249.3,237.9 249.4,237.5 249.5,237.1 249.6,236.6 249.6,236.2 
		249.7,235.8 249.8,235.4 249.9,235 249.9,234.6 250,234.2 250.1,233.8 250.2,233.4 250.3,233 250.3,232.6 250.4,232.1 250.5,231.7 
		250.6,231.3 250.6,230.9 250.7,230.5 250.8,230.1 250.9,229.7 250.9,229.3 251,228.9 251.1,228.5 251.1,228.1 251.2,227.6 
		251.3,227.2 251.4,226.8 251.4,226.4 251.5,226 251.6,225.6 251.6,225.2 251.7,224.8 251.7,224.4 251.8,224 251.9,223.6 
		251.9,223.1 252,222.7 252.1,222.3 252.1,221.9 252.2,221.5 252.2,221.1 252.3,220.7 252.4,220.3 252.4,219.9 252.5,219.5 
		252.6,219.1 252.6,218.6 252.7,218.2 252.7,217.8 252.8,217.4 252.9,217 252.9,216.6 253,216.2 253,215.8 253.1,215.4 253.2,215 
		253.2,214.6 253.3,214.1 253.4,213.7 253.4,213.3 253.5,212.9 253.6,212.5 253.6,212.1 253.7,211.7 253.8,211.3 253.9,210.9 
		253.9,210.5 254,210.1 254.1,209.6 254.2,209.2 254.3,208.8 254.4,208.4 254.4,208 254.6,207.6 254.6,207.2 254.7,206.8 
		254.8,206.4 254.9,206 255.1,205.6 255.2,205.1 255.3,204.7 255.4,204.3 255.5,203.9 255.6,203.5 255.8,203.1 255.9,202.7 
		256,202.3 256.2,201.9 256.3,201.5 256.5,201.1 256.6,200.6 256.8,200.2 256.9,199.8 257.1,199.4 257.3,199 257.5,198.6 
		257.6,198.2 257.8,197.8 258,197.4 258.2,197 258.4,196.6 258.6,196.1 258.8,195.7 259,195.3 259.2,194.9 259.4,194.5 259.7,194.1 
		259.9,193.7 260.1,193.3 260.4,192.9 260.6,192.5 260.9,192.1 261.1,191.6 261.4,191.3 261.6,190.8 261.9,190.4 262.1,190 
		262.4,189.6 262.7,189.2 263,188.8 263.3,188.4 263.5,188 263.8,187.6 264.1,187.2 264.4,186.8 264.7,186.3 265,185.9 265.4,185.5 
		265.7,185.1 266,184.7 266.3,184.3 266.6,183.9 266.9,183.5 267.3,183.1 267.6,182.7 267.9,182.3 268.2,181.8 268.6,181.4 
		268.9,181 269.2,180.6 269.6,180.2 269.9,179.8 270.2,179.4 270.6,179 270.9,178.6 271.2,178.2 271.6,177.8 271.9,177.3 
		272.2,176.9 272.6,176.5 272.9,176.1 273.2,175.7 273.6,175.3 273.9,174.9 274.2,174.5 274.5,174.1 274.9,173.7 275.2,173.3 
		275.5,172.8 275.8,172.4 276.1,172 276.4,171.6 276.7,171.2 277,170.8 277.3,170.4 277.6,170 277.8,169.6 278.1,169.2 278.4,168.8 
		278.6,168.3 278.9,167.9 279.1,167.5 279.4,167.1 279.6,166.7 279.8,166.3 280,165.9 280.3,165.5 280.5,165.1 280.6,164.7 
		280.8,164.3 281,163.8 281.2,163.4 281.3,163 281.5,162.6 281.6,162.2 281.8,161.8 281.9,161.4 282,161 282.1,160.6 282.2,160.2 
		282.2,159.8 282.3,159.3 282.4,158.9 282.4,158.5 282.5,158.1 282.5,157.7 282.5,157.3 282.5,156.9 282.5,156.5 282.5,156.1 
		282.5,155.7 282.5,155.3 282.4,154.8 282.4,154.4 282.3,154 282.3,153.6 282.2,153.2 282.1,152.8 282,152.4 281.9,152 281.8,151.6 
		281.7,151.2 281.6,150.8 281.5,150.4 281.3,149.9 281.2,149.5 281,149.1 280.9,148.7 280.7,148.3 280.6,147.9 280.4,147.5 
		280.3,147.1 280.1,146.7 279.9,146.3 279.7,145.9 279.5,145.4 279.4,145 279.2,144.6 279,144.2 278.8,143.8 278.6,143.4 278.5,143 
		278.3,142.6 278.1,142.2 277.9,141.8 277.7,141.4 277.5,140.9 277.4,140.5 277.2,140.1 277,139.7 276.8,139.3 276.7,138.9 
		276.5,138.5 276.3,138.1 276.2,137.7 276,137.3 275.9,136.9 275.7,136.4 275.5,136 275.4,135.6 275.2,135.2 275.1,134.8 275,134.4 
		274.8,134 274.7,133.6 274.5,133.2 274.4,132.8 274.3,132.4 274.1,131.9 274,131.5 273.9,131.1 273.8,130.7 273.6,130.3 
		273.5,129.9 273.4,129.5 273.3,129.1 273.2,128.7 273.1,128.3 273,127.8 272.8,127.4 272.7,127 272.6,126.6 272.5,126.2 
		272.4,125.8 272.2,125.4 272.1,125 272,124.6 271.9,124.2 271.7,123.8 271.6,123.3 271.5,122.9 271.3,122.5 271.2,122.1 271,121.7 
		270.9,121.3 270.8,120.9 270.6,120.5 270.4,120.1 270.3,119.7 270.1,119.3 269.9,118.8 269.8,118.4 269.6,118 269.4,117.6 
		269.2,117.2 269,116.8 268.8,116.4 268.6,116 268.4,115.6 268.2,115.2 268,114.8 267.8,114.3 267.5,113.9 267.3,113.5 267.1,113.1 
		266.8,112.7 266.6,112.3 266.4,111.9 266.1,111.5 265.9,111.1 265.6,110.7 265.3,110.3 265.1,109.9 264.8,109.4 264.5,109 
		264.3,108.6 264,108.2 263.7,107.8 263.4,107.4 263.1,107 262.9,106.6 262.6,106.2 262.3,105.8 262,105.4 261.7,104.9 261.4,104.5 
		261.1,104.1 260.9,103.7 260.6,103.3 260.3,102.9 260,102.5 259.7,102.1 259.5,101.7 259.2,101.3 258.9,100.9 258.6,100.4 
		258.3,100 258.1,99.6 257.8,99.2 257.5,98.8 257.3,98.4 257,98 256.7,97.6 256.5,97.2 256.2,96.8 256,96.4 255.7,95.9 255.5,95.5 
		255.2,95.1 255,94.7 254.8,94.3 254.5,93.9 254.3,93.5 254.1,93.1 253.9,92.7 253.6,92.3 253.4,91.9 253.2,91.4 253,91 252.8,90.6 
		252.6,90.2 252.4,89.8 252.3,89.4 252.1,89 251.9,88.6 251.7,88.2 251.5,87.8 251.4,87.4 251.2,86.9 251.1,86.5 250.9,86.1 
		250.7,85.7 250.6,85.3 250.4,84.9 250.3,84.5 250.2,84.1 250,83.7 249.9,83.3 249.8,82.9 249.6,82.4 249.5,82 249.4,81.6 
		249.3,81.2 249.2,80.8 249.1,80.4 248.9,80 248.9,79.6 248.8,79.2 248.6,78.8 248.6,78.4 248.4,77.9 248.4,77.5 248.3,77.1 
		248.2,76.7 248.1,76.3 248,75.9 247.9,75.5 247.9,75.1 247.8,74.7 247.7,74.3 247.6,73.9 247.6,73.4 247.5,73.1 247.4,72.6 
		247.4,72.2 247.3,71.8 247.2,71.4 247.2,71 247.1,70.6 247.1,70.2 247,69.8 246.9,69.4 246.9,69 246.8,68.6 246.8,68.1 246.7,67.7 
		246.7,67.3 246.6,66.9 246.6,66.5 246.5,66.1 246.5,65.7 246.4,65.3 246.4,64.9 246.4,64.5 246.3,64.1 246.3,63.6 246.2,63.2 
		246.2,62.8 246.1,62.4 246.1,62 246.1,61.6 246,61.2 246,60.8 245.9,60.4 245.9,60 245.9,59.5 245.8,59.1 245.8,58.7 245.8,58.3 
		245.7,57.9 245.7,57.5 245.6,57.1 245.6,56.7 245.6,56.3 245.5,55.9 245.5,55.5 245.5,55 245.4,54.6 245.4,54.2 245.3,53.8 
		245.3,53.4 245.3,53 245.2,52.6 245.2,52.2 245.1,51.8 245.1,51.4 245.1,51 245,50.5 245,50.1 245,49.7 244.9,49.3 244.9,48.9 
		244.8,48.5 244.8,48.1 244.8,47.7 244.7,47.3 242.9,47.3 242.9,47.7 242.9,48.1 242.9,48.5 242.9,48.9 242.9,49.3 242.9,49.7 
		242.9,50.1 242.9,50.5 242.9,51 242.9,51.4 242.9,51.8 242.9,52.2 242.9,52.6 242.9,53 242.9,53.4 242.9,53.8 242.9,54.2 
		242.9,54.6 242.9,55 242.9,55.5 242.9,55.9 242.9,56.3 242.9,56.7 242.9,57.1 242.9,57.5 242.9,57.9 242.9,58.3 242.9,58.7 
		242.9,59.1 242.9,59.5 242.9,60 242.9,60.4 242.9,60.8 242.9,61.2 242.9,61.6 242.9,62 242.9,62.4 242.9,62.8 242.9,63.2 
		242.9,63.6 242.9,64.1 242.9,64.5 242.9,64.9 242.9,65.3 242.9,65.7 242.9,66.1 242.9,66.5 242.9,66.9 242.9,67.3 242.9,67.7 
		242.9,68.1 242.9,68.6 242.9,69 242.9,69.4 242.9,69.8 242.9,70.2 242.9,70.6 242.9,71 242.9,71.4 242.9,71.8 242.9,72.2 
		242.9,72.6 242.9,73.1 242.9,73.4 242.9,73.9 242.9,74.3 242.9,74.7 242.9,75.1 242.9,75.5 242.9,75.9 242.9,76.3 242.9,76.7 
		242.9,77.1 242.9,77.5 242.9,77.9 242.9,78.4 242.9,78.8 242.9,79.2 242.9,79.6 242.9,80 242.9,80.4 242.9,80.8 242.9,81.2 
		242.9,81.6 242.9,82 242.9,82.4 242.9,82.9 242.9,83.3 242.9,83.7 242.9,84.1 242.9,84.5 242.9,84.9 242.9,85.3 242.9,85.7 
		242.9,86.1 242.9,86.5 242.9,86.9 242.9,87.4 242.9,87.8 242.9,88.2 242.9,88.6 242.9,89 242.9,89.4 242.9,89.8 242.9,90.2 
		242.9,90.6 242.9,91 242.9,91.4 242.9,91.9 242.9,92.3 242.9,92.7 242.9,93.1 242.9,93.5 242.9,93.9 242.9,94.3 242.9,94.7 
		242.9,95.1 242.9,95.5 242.9,95.9 242.9,96.4 242.9,96.8 242.9,97.2 242.9,97.6 242.9,98 242.9,98.4 242.9,98.8 242.9,99.2 
		242.9,99.6 242.9,100 242.9,100.4 242.9,100.9 242.9,101.3 242.9,101.7 242.9,102.1 242.9,102.5 242.9,102.9 242.9,103.3 
		242.9,103.7 242.9,104.1 242.9,104.5 242.9,104.9 242.9,105.4 242.9,105.8 242.9,106.2 242.9,106.6 242.9,107 242.9,107.4 
		242.9,107.8 242.9,108.2 242.9,108.6 242.9,109 242.9,109.4 242.9,109.9 242.9,110.3 242.9,110.7 242.9,111.1 242.9,111.5 
		242.9,111.9 242.9,112.3 242.9,112.7 242.9,113.1 242.9,113.5 242.9,113.9 242.9,114.3 242.9,114.8 242.9,115.2 242.9,115.6 
		242.9,116 242.9,116.4 242.9,116.8 242.9,117.2 242.9,117.6 242.9,118 242.9,118.4 242.9,118.8 242.9,119.3 242.9,119.7 
		242.9,120.1 242.9,120.5 242.9,120.9 242.9,121.3 242.9,121.7 242.9,122.1 242.9,122.5 242.9,122.9 242.9,123.3 242.9,123.8 
		242.9,124.2 242.9,124.6 242.9,125 242.9,125.4 242.9,125.8 242.9,126.2 242.9,126.6 242.9,127 242.9,127.4 242.9,127.8 
		242.9,128.3 242.9,128.7 242.9,129.1 242.9,129.5 242.9,129.9 242.9,130.3 242.9,130.7 242.9,131.1 242.9,131.5 242.9,131.9 
		242.9,132.4 242.9,132.8 242.9,133.2 242.9,133.6 242.9,134 242.9,134.4 242.9,134.8 242.9,135.2 242.9,135.6 242.9,136 
		242.9,136.4 242.9,136.9 242.9,137.3 242.9,137.7 242.9,138.1 242.9,138.5 242.9,138.9 242.9,139.3 242.9,139.7 242.9,140.1 
		242.9,140.5 242.9,140.9 242.9,141.4 242.9,141.8 242.9,142.2 242.9,142.6 242.9,143 242.9,143.4 242.9,143.8 242.9,144.2 
		242.9,144.6 242.9,145 242.9,145.4 242.9,145.9 242.9,146.3 242.9,146.7 242.9,147.1 242.9,147.5 242.9,147.9 242.9,148.3 
		242.9,148.7 242.9,149.1 242.9,149.5 242.9,149.9 242.9,150.4 242.9,150.8 242.9,151.2 242.9,151.6 242.9,152 242.9,152.4 
		242.9,152.8 242.9,153.2 242.9,153.6 242.9,154 242.9,154.4 242.9,154.8 242.9,155.3 242.9,155.7 242.9,156.1 242.9,156.5 
		242.9,156.9 242.9,157.3 242.9,157.7 242.9,158.1 242.9,158.5 242.9,158.9 242.9,159.3 242.9,159.8 242.9,160.2 242.9,160.6 
		242.9,161 242.9,161.4 242.9,161.8 242.9,162.2 242.9,162.6 242.9,163 242.9,163.4 242.9,163.8 242.9,164.3 242.9,164.7 
		242.9,165.1 242.9,165.5 242.9,165.9 242.9,166.3 242.9,166.7 242.9,167.1 242.9,167.5 242.9,167.9 242.9,168.3 242.9,168.8 
		242.9,169.2 242.9,169.6 242.9,170 242.9,170.4 242.9,170.8 242.9,171.2 242.9,171.6 242.9,172 242.9,172.4 242.9,172.8 
		242.9,173.3 242.9,173.7 242.9,174.1 242.9,174.5 242.9,174.9 242.9,175.3 242.9,175.7 242.9,176.1 242.9,176.5 242.9,176.9 
		242.9,177.3 242.9,177.8 242.9,178.2 242.9,178.6 242.9,179 242.9,179.4 242.9,179.8 242.9,180.2 242.9,180.6 242.9,181 
		242.9,181.4 242.9,181.8 242.9,182.3 242.9,182.7 242.9,183.1 242.9,183.5 242.9,183.9 242.9,184.3 242.9,184.7 242.9,185.1 
		242.9,185.5 242.9,185.9 242.9,186.3 242.9,186.8 242.9,187.2 242.9,187.6 242.9,188 242.9,188.4 242.9,188.8 242.9,189.2 
		242.9,189.6 242.9,190 242.9,190.4 242.9,190.8 242.9,191.3 242.9,191.6 242.9,192.1 242.9,192.5 242.9,192.9 242.9,193.3 
		242.9,193.7 242.9,194.1 242.9,194.5 242.9,194.9 242.9,195.3 242.9,195.7 242.9,196.1 242.9,196.6 242.9,197 242.9,197.4 
		242.9,197.8 242.9,198.2 242.9,198.6 242.9,199 242.9,199.4 242.9,199.8 242.9,200.2 242.9,200.6 242.9,201.1 242.9,201.5 
		242.9,201.9 242.9,202.3 242.9,202.7 242.9,203.1 242.9,203.5 242.9,203.9 242.9,204.3 242.9,204.7 242.9,205.1 242.9,205.6 
		242.9,206 242.9,206.4 242.9,206.8 242.9,207.2 242.9,207.6 242.9,208 242.9,208.4 242.9,208.8 242.9,209.2 242.9,209.6 
		242.9,210.1 242.9,210.5 242.9,210.9 242.9,211.3 242.9,211.7 242.9,212.1 242.9,212.5 242.9,212.9 242.9,213.3 242.9,213.7 
		242.9,214.1 242.9,214.6 242.9,215 242.9,215.4 242.9,215.8 242.9,216.2 242.9,216.6 242.9,217 242.9,217.4 242.9,217.8 
		242.9,218.2 242.9,218.6 242.9,219.1 242.9,219.5 242.9,219.9 242.9,220.3 242.9,220.7 242.9,221.1 242.9,221.5 242.9,221.9 
		242.9,222.3 242.9,222.7 242.9,223.1 242.9,223.6 242.9,224 242.9,224.4 242.9,224.8 242.9,225.2 242.9,225.6 242.9,226 
		242.9,226.4 242.9,226.8 242.9,227.2 242.9,227.6 242.9,228.1 242.9,228.5 242.9,228.9 242.9,229.3 242.9,229.7 242.9,230.1 
		242.9,230.5 242.9,230.9 242.9,231.3 242.9,231.7 242.9,232.1 242.9,232.6 242.9,233 242.9,233.4 242.9,233.8 242.9,234.2 
		242.9,234.6 242.9,235 242.9,235.4 242.9,235.8 242.9,236.2 242.9,236.6 242.9,237.1 242.9,237.5 242.9,237.9 242.9,238.3 
		242.9,238.7 242.9,239.1 242.9,239.5 242.9,239.9 242.9,240.3 242.9,240.7 242.9,241.1 242.9,241.6 242.9,242 242.9,242.4 
		242.9,242.8 242.9,243.2 242.9,243.6 242.9,244 242.9,244.4 242.9,244.8 242.9,245.2 242.9,245.6 242.9,246.1 242.9,246.5 
		242.9,246.9 242.9,247.3 242.9,247.7 242.9,248.1 242.9,248.5 242.9,248.9 242.9,249.3 242.9,249.7 242.9,250.1 242.9,250.6 
		242.9,251 242.9,251.4 242.9,251.8 242.9,252.2 242.9,252.6 242.9,253 242.9,253.4 242.9,253.8 242.9,254.2 242.9,254.6 
		242.9,255.1 242.9,255.5 242.9,255.9 242.9,256.3 245.6,256.3 	"/>
</g>
</svg>
